<svg id="svg1936" xmlns="http://www.w3.org/2000/svg" viewBox="0 0 910.94 179.86"><path id="path12" d="M498,32.91V10.19a5.61,5.61,0,0,1,5.74-5.75H605.5a5.66,5.66,0,0,1,5.88,5.75V29.64c0,3.27-2.79,7.53-7.66,14.28L551,119.18c19.59-.48,40.27,2.44,58,12.45,4,2.27,5.09,5.57,5.39,8.84v24.25c0,3.3-3.65,7.18-7.48,5.18-31.3-16.42-72.87-18.2-107.48.17-3.52,1.91-7.22-1.92-7.22-5.22v-23c0-3.7,0-10,3.74-15.63l61.07-87.58H503.9a5.63,5.63,0,0,1-5.87-5.7" transform="translate(-9.06 0)" style="fill-rule:evenodd"/><path id="path16" d="M699,1.52c45.92,0,70.78,39.44,70.78,89.59,0,48.45-27.47,86.88-70.78,86.88-45.1,0-69.65-39.44-69.65-88.58C629.31,40,654.17,1.52,699,1.52M699.22,34C676.41,34,675,65,675,84.4s-.3,60.86,24,60.86c24,0,25.11-33.43,25.11-53.8,0-13.41-.56-29.43-4.61-42.14C716,38.26,709.06,34,699.22,34" transform="translate(-9.06 0)" style="fill-rule:evenodd"/><path id="path18" d="M829.28,174.68H798.47a5.89,5.89,0,0,1-5.58-5.74l0-158.88a5.85,5.85,0,0,1,6-5.18H827.5A5.91,5.91,0,0,1,833,9.32V33.6h.56c8.67-21.72,20.81-32.08,42.18-32.08,13.89,0,27.43,5,36.13,18.72C920,33,920,54.32,920,69.69v100a6,6,0,0,1-6,5H883a5.84,5.84,0,0,1-5.48-5V83.4c0-17.37,2-42.79-19.38-42.79-7.53,0-14.45,5-17.89,12.71-4.35,9.71-4.91,19.37-4.91,30.08v85.54a6,6,0,0,1-6.06,5.74" transform="translate(-9.06 0)" style="fill-rule:evenodd"/><path id="path28" d="M416.93,98.81c0,12.06.31,22.11-5.79,32.82-4.92,8.71-12.75,14.06-21.41,14.06-11.89,0-18.85-9.05-18.85-22.41,0-26.38,23.63-31.17,46.05-31.17v6.7m31.21,75.44a6.45,6.45,0,0,1-7.31.74c-10.27-8.53-12.15-12.49-17.76-20.63-17,17.32-29,22.5-51,22.5-26.07,0-46.31-16.06-46.31-48.23,0-25.12,13.58-42.22,33-50.58,16.8-7.4,40.27-8.71,58.2-10.75v-4c0-7.35.57-16.06-3.79-22.42-3.74-5.7-11-8-17.36-8-11.8,0-22.29,6-24.86,18.59-.52,2.78-2.57,5.53-5.4,5.66l-30-3.22c-2.52-.57-5.35-2.62-4.61-6.49C337.79,11,370.7,0,400.13,0c15.06,0,34.74,4,46.62,15.41,15.06,14.06,13.62,32.82,13.62,53.24v48.23c0,14.49,6,20.85,11.67,28.68,2,2.79,2.39,6.14-.13,8.23-6.31,5.27-17.54,15.06-23.72,20.55l-.05-.09" transform="translate(-9.06 0)" style="fill-rule:evenodd"/><path d="M20.69,39.18c3-15.69,4.28-17,16-24.59S62.12,2.78,77.81,1.9h6.61q30.15,0,47.07,15.6a50.06,50.06,0,0,1,4.89,5.69A50.63,50.63,0,0,1,140,28.61a27.69,27.69,0,0,1,2.38,6.87c.71,3,1.23,5.07,1.59,6.22a38.24,38.24,0,0,1,.79,7.4q.27,5.68.27,6.75v64a38,38,0,0,0,2,12.56,32.65,32.65,0,0,0,3.83,8.19q1.86,2.52,6.08,8.07a7.92,7.92,0,0,1,1.59,4.23,4.56,4.56,0,0,1-2.11,3.7l-23.8,20.63c-2.12,1.59-4.67,1.76-7.67.53q-3.7-3.18-6.48-6.08t-4-4.24a59.8,59.8,0,0,1-3.83-5.15c-1.76-2.56-3-4.28-3.7-5.16q-14.82,16.14-29.09,20.1-9,2.64-22.21,2.64-20.37,0-33.45-12.56T9.06,131.74q0-18.26,9-31.21A55.46,55.46,0,0,1,42.64,81q14.28-6.09,35.17-8.73,7.14-.8,23.27-2.12V65.63q0-16.92-3.7-22.74Q91.83,35,79.93,35H77.81a28.86,28.86,0,0,0-15.07,5.55,21.66,21.66,0,0,0-8.2,13.22c-.71,3.53-2.47,5.55-5.29,6.08L45.36,45.49,18.84,56.11m35.7,70.34q0,10.3,5.16,16.52t13.88,6.22a13.27,13.27,0,0,0,2.25-.27,14.29,14.29,0,0,1,2-.26q11.1-2.91,17.19-14.28a41.43,41.43,0,0,0,4.36-11,50.51,50.51,0,0,0,1.59-9.65q.14-3.7.13-12.17V95Q85.75,95,77.81,97.1,54.54,103.7,54.54,126.45Z" transform="translate(-9.06 0)"/><path d="M48.68,64.78c-1,2.29-1.92,4.12-4,5.38s-4.55,1.78-6.86,2.73a24.29,24.29,0,0,0-10.64,8.86c-1.36,2.11-2.49,4.5-4,6.48a19.11,19.11,0,0,1-4.48,3.86c.31-1,.44-2.08.74-3.06,1.49-4.71,4.27-8.23,6.47-12.51,2-3.93,3.41-8,6.34-11.4.83-1,1.49-2,2.29-3,1.23-1.53,2.73-3,4-4.37,2.46-2.6,5.87-5.31,6.19-9.07-1.56,5.25-6.59,7.48-10.06,11.13A47.19,47.19,0,0,0,30.48,65a45.11,45.11,0,0,0-3.89,6.54c-1.82,3.86-3.7,7.76-5.87,11.42a52.8,52.8,0,0,0-3.09,6.79c-.95,2.32-1.39,8-4.47,4.84-2.22-2.28-2.63-6.35-2.13-9.55.71-4.53,2.6-9.13,3.88-13.55,1-3.45,1.66-7.11,2.31-10.7.62-3.36,1.89-6.59,2.18-10,.32-3.88.64-7.79,1.29-11.66.36-2.17-.46-4.39,0-6.55a15.06,15.06,0,0,1,2.93-5.55c2.36.49,2.13,4.19,2.82,6,.86,2.24,3.87,1.88,5.41,3.37.75.72,1.21,1.89,1.92,2.62s1.82,1.61,2.64,2.45a12.4,12.4,0,0,0,5.76,3.58c2.15.5,4.13-.9,5.07,1.58.72,1.9.72,4.4,1.74,6.12,1.22,2.09,3.62,2.34,2.92,5.48C51.32,60.65,49.56,62.65,48.68,64.78ZM21.17,58.57c-.19,1.25-1.28,2.29-1.34,3.61-.08,1.77,1.08,1.09,1.48,2.56.34,1.26-.6,3-.52,4.36a16.72,16.72,0,0,0,1.43-5c.24-1.5.88-2.84,1.09-4.32.18-1.19.11-5.91-1.93-3.7C20.54,57,21.29,57.76,21.17,58.57Z" transform="translate(-9.06 0)" style="fill:#fff;stroke:#000;stroke-miterlimit:10"/><path d="M36.16,21c-2.75.86-5.65,6.74-1.42,7.19,1.76.19,2.28-.93,3.58-2,1-.78,2.79-2.22,2.55-3.6C40.59,20.94,37.51,20.54,36.16,21Zm.49,4.1C35,25.6,35.2,23.39,36.42,23l.25,0C38.21,22.41,37.66,24.74,36.65,25.06Z" transform="translate(-9.06 0)" style="fill:#fff;stroke:#000;stroke-miterlimit:10"/><path d="M200,7l37.48,121.44c1.78,4.49,5.78,2.59,7.57-1.89L280.94,7a5.34,5.34,0,0,1,5-3.36H323A5.35,5.35,0,0,1,328,11.07l-68.34,162a5.36,5.36,0,0,1-4.92,3.26H226a5.33,5.33,0,0,1-4.92-3.27L153,11.06a5.34,5.34,0,0,1,4.93-7.41H195A5.36,5.36,0,0,1,200,7Z" transform="translate(-9.06 0)"/></svg>