<svg id="Layer_1" data-name="Layer 1" xmlns="http://www.w3.org/2000/svg" viewBox="0 0 1707.26 2033.6"><path d="M497.32,555.29c34.24-179.29,48.93-194.35,182.9-281s290.58-135,469.87-145h75.54q344.47,0,537.87,178.28a576.3,576.3,0,0,1,55.9,65q25.68,34.75,40.79,62t27.2,78.56q12.08,51.38,18.13,71t9.06,84.61q3,65,3,77.05V1477q0,78.57,22.67,143.53t43.81,93.68q21.15,28.69,69.5,92.16,18.14,27.2,18.13,48.35,0,24.16-24.17,42.3-250.82,217.56-272,235.69-36.25,27.2-87.63,6.05-42.3-36.27-74-69.5t-45.32-48.35q-13.61-15.1-43.82-58.92t-42.3-58.93q-169.21,184.34-332.39,229.65-102.73,30.23-253.82,30.22-232.68,0-382.25-143.53T364.45,1612.93q0-208.5,102.74-356.56t281-223.61q163.17-69.5,401.88-99.71Q1231.68,924,1416,908.87V857.51q0-193.39-42.3-259.87Q1310.24,507,1174.27,507h-24.18q-99.72,9.06-172.23,63.45T884.18,721.53Q872.09,782,823.75,791L779.23,627.36l-303,121.36M884.18,1552.5q0,117.84,58.93,188.85t158.63,71q9.08,0,25.69-3t22.66-3q126.92-33.24,196.41-163.17,33.24-57.42,49.86-125.4t18.13-110.3q1.52-42.3,1.51-139v-75.55q-175.26,0-265.91,24.18Q884.19,1292.63,884.18,1552.5Z" transform="translate(-364.45 -129.28)"/><path d="M817.23,847.75c-10.9,26.24-21.9,47.12-46,61.57-25,15-52,20.26-78.37,31.16-48.09,19.85-93.57,58.15-121.55,101.29-15.63,24.12-28.47,51.42-46,74-15,19.38-32.13,30.41-51.17,44,3.55-11.52,5-23.76,8.47-34.93,16.94-53.8,48.79-94.07,73.82-143,23-45,39.06-91,72.49-130.31,9.55-11.24,17.06-22.8,26.16-34.17,14.05-17.49,31.19-34.13,46.18-49.93,28.13-29.64,67.1-60.63,70.74-103.63-17.78,60-75.34,85.48-114.91,127.21-17.33,18.24-33.63,39-48,59.45-16.43,23.34-31.92,48.4-44.4,74.75-20.84,44.06-42.3,88.65-67.1,130.47-13.83,23.34-24.95,52.13-35.3,77.55-10.83,26.56-15.89,91.32-51.05,55.34-25.43-26.06-30.06-72.53-24.34-109.13,8-51.76,29.71-104.31,44.29-154.91,11.35-39.34,19-81.18,26.48-122.19,7-38.38,21.57-75.31,24.82-113.9,3.75-44.43,7.37-89.08,14.73-133.27,4.12-24.8-5.22-50.22-.4-74.86,3-15.17,20.49-50.8,33.52-63.46,26.94,5.66,24.32,47.95,32.13,68.15,9.91,25.59,44.29,21.51,61.87,38.51,8.52,8.22,13.81,21.63,21.94,30,9.53,9.79,20.79,18.42,30.21,28,18.06,18.32,40.32,34.93,65.83,40.91,24.56,5.72,47.17-10.35,57.93,18,8.19,21.72,8.2,50.22,19.81,70,14,23.82,41.44,26.75,33.37,62.63C847.33,800.65,827.29,823.45,817.23,847.75Zm-314.34-71c-2.16,14.35-14.66,26.25-15.34,41.3-.88,20.2,12.28,12.49,16.86,29.29,3.89,14.32-6.83,34.42-5.88,49.82,9.1-17.64,13.08-37.7,16.27-57,2.83-17.14,10.16-32.38,12.56-49.31,2-13.69,1.2-67.55-22.09-42.28C495.69,759.07,504.28,767.61,502.89,776.8Z" transform="translate(-364.45 -129.28)" style="fill:#fff;stroke:#000;stroke-miterlimit:10;stroke-width:7px"/><path d="M656.42,359.49c-22,6.86-45.27,54-11.37,57.58,14.12,1.49,18.22-7.44,28.64-16,7.71-6.26,22.35-17.75,20.44-28.84C691.87,359.27,667.22,356.12,656.42,359.49Zm4,32.81c-13.44,4.34-11.68-13.41-1.89-16.47l2,.22C672.85,371.06,668.41,389.72,660.37,392.3Z" transform="translate(-364.45 -129.28)" style="fill:#fff;stroke:#000;stroke-miterlimit:10"/></svg>